<mxfile host="app.diagrams.net" modified="2024-01-31T14:07:06.726Z" agent="Mozilla/5.0 (Windows NT 10.0; Win64; x64) AppleWebKit/537.36 (KHTML, like Gecko) Chrome/121.0.0.0 Safari/537.36 Edg/121.0.0.0" version="23.0.2" etag="1plXCotUrd3CDa3px_WL" type="github">
  <diagram name="PÃ¡gina-1" id="5cdBFd0sv6MoAVtlX1VF">
    <mxGraphModel>
      <root>
        <mxCell id="0" />
        <mxCell id="1" parent="0" />
      </root>
    </mxGraphModel>
  </diagram>
</mxfile>
